<svg xmlns="http://www.w3.org/2000/svg" version="1.1" xmlns:xlink="http://www.w3.org/1999/xlink" xmlns:svgjs="http://svgjs.com/svgjs" width="1920" height="1920" preserveAspectRatio="none" viewBox="0 0 1920 1920"><g mask="url(&quot;#SvgjsMask1811&quot;)" fill="none"><rect width="1920" height="1920" x="0" y="0" fill="url(#SvgjsLinearGradient1812)"></rect><path d="M1920 0L1550.56 0L1920 855.88z" fill="rgba(255, 255, 255, .1)"></path><path d="M1550.56 0L1920 855.88L1920 1148.12L904.3399999999999 0z" fill="rgba(255, 255, 255, .075)"></path><path d="M904.3399999999999 0L1920 1148.12L1920 1472.61L648.6199999999999 0z" fill="rgba(255, 255, 255, .05)"></path><path d="M648.6199999999999 0L1920 1472.61L1920 1674.08L497.1799999999999 0z" fill="rgba(255, 255, 255, .025)"></path><path d="M0 1920L686.44 1920L0 1141.27z" fill="rgba(0, 0, 0, .1)"></path><path d="M0 1141.27L686.44 1920L1161.92 1920L0 1069.15z" fill="rgba(0, 0, 0, .075)"></path><path d="M0 1069.15L1161.92 1920L1509.0300000000002 1920L0 944.6100000000001z" fill="rgba(0, 0, 0, .05)"></path><path d="M0 944.61L1509.0300000000002 1920L1764.2800000000002 1920L0 455.68z" fill="rgba(0, 0, 0, .025)"></path></g><defs><mask id="SvgjsMask1811"><rect width="1920" height="1920" fill="#ffffff"></rect></mask><linearGradient x1="0%" y1="100%" x2="100%" y2="0%" gradientUnits="userSpaceOnUse" id="SvgjsLinearGradient1812"><stop stop-color="rgba(34, 88, 186, 1)" offset="1"></stop><stop stop-color="rgba(74, 96, 124, 1)" offset="1"></stop></linearGradient></defs></svg>