<svg xmlns="http://www.w3.org/2000/svg" version="1.1" xmlns:xlink="http://www.w3.org/1999/xlink" xmlns:svgjs="http://svgjs.com/svgjs" width="1440" height="560" preserveAspectRatio="none" viewBox="0 0 1440 560"><g mask="url(&quot;#SvgjsMask1023&quot;)" fill="none"><rect width="1440" height="560" x="0" y="0" fill="#0e2a47"></rect><path d="M647 90L842 285" stroke-width="8" stroke="url(#SvgjsLinearGradient1024)" stroke-linecap="round" class="BottomRight"></path><path d="M324 344L19 39" stroke-width="8" stroke="url(#SvgjsLinearGradient1025)" stroke-linecap="round" class="TopLeft"></path><path d="M228 488L-104 156" stroke-width="10" stroke="url(#SvgjsLinearGradient1024)" stroke-linecap="round" class="BottomRight"></path><path d="M748 376L1163 791" stroke-width="10" stroke="url(#SvgjsLinearGradient1024)" stroke-linecap="round" class="BottomRight"></path><path d="M267 109L-109 -267" stroke-width="10" stroke="url(#SvgjsLinearGradient1025)" stroke-linecap="round" class="TopLeft"></path><path d="M888 175L684 -29" stroke-width="10" stroke="url(#SvgjsLinearGradient1025)" stroke-linecap="round" class="TopLeft"></path><path d="M1004 544L711 251" stroke-width="8" stroke="url(#SvgjsLinearGradient1025)" stroke-linecap="round" class="TopLeft"></path><path d="M1270 461L1524 715" stroke-width="10" stroke="url(#SvgjsLinearGradient1025)" stroke-linecap="round" class="TopLeft"></path><path d="M1306 194L1111 -1" stroke-width="10" stroke="url(#SvgjsLinearGradient1025)" stroke-linecap="round" class="TopLeft"></path><path d="M880 244L634 -2" stroke-width="8" stroke="url(#SvgjsLinearGradient1025)" stroke-linecap="round" class="TopLeft"></path><path d="M1372 150L1073 -149" stroke-width="8" stroke="url(#SvgjsLinearGradient1024)" stroke-linecap="round" class="BottomRight"></path><path d="M876 77L1292 493" stroke-width="10" stroke="url(#SvgjsLinearGradient1025)" stroke-linecap="round" class="TopLeft"></path><path d="M1001 78L590 -333" stroke-width="10" stroke="url(#SvgjsLinearGradient1025)" stroke-linecap="round" class="TopLeft"></path><path d="M589 106L923 440" stroke-width="6" stroke="url(#SvgjsLinearGradient1024)" stroke-linecap="round" class="BottomRight"></path><path d="M284 249L438 403" stroke-width="8" stroke="url(#SvgjsLinearGradient1025)" stroke-linecap="round" class="TopLeft"></path><path d="M710 88L886 264" stroke-width="6" stroke="url(#SvgjsLinearGradient1025)" stroke-linecap="round" class="TopLeft"></path><path d="M1373 90L1726 443" stroke-width="8" stroke="url(#SvgjsLinearGradient1025)" stroke-linecap="round" class="TopLeft"></path><path d="M203 521L-139 179" stroke-width="10" stroke="url(#SvgjsLinearGradient1024)" stroke-linecap="round" class="BottomRight"></path><path d="M302 220L34 -48" stroke-width="6" stroke="url(#SvgjsLinearGradient1024)" stroke-linecap="round" class="BottomRight"></path><path d="M325 518L118 311" stroke-width="6" stroke="url(#SvgjsLinearGradient1025)" stroke-linecap="round" class="TopLeft"></path><path d="M370 251L139 20" stroke-width="6" stroke="url(#SvgjsLinearGradient1024)" stroke-linecap="round" class="BottomRight"></path><path d="M1030 559L639 168" stroke-width="10" stroke="url(#SvgjsLinearGradient1025)" stroke-linecap="round" class="TopLeft"></path><path d="M105 251L-197 -51" stroke-width="8" stroke="url(#SvgjsLinearGradient1024)" stroke-linecap="round" class="BottomRight"></path><path d="M1437 237L1834 634" stroke-width="10" stroke="url(#SvgjsLinearGradient1025)" stroke-linecap="round" class="TopLeft"></path><path d="M1252 297L1090 135" stroke-width="10" stroke="url(#SvgjsLinearGradient1024)" stroke-linecap="round" class="BottomRight"></path><path d="M876 35L671 -170" stroke-width="6" stroke="url(#SvgjsLinearGradient1024)" stroke-linecap="round" class="BottomRight"></path><path d="M945 66L649 -230" stroke-width="8" stroke="url(#SvgjsLinearGradient1025)" stroke-linecap="round" class="TopLeft"></path><path d="M465 257L754 546" stroke-width="8" stroke="url(#SvgjsLinearGradient1025)" stroke-linecap="round" class="TopLeft"></path><path d="M479 352L247 120" stroke-width="6" stroke="url(#SvgjsLinearGradient1025)" stroke-linecap="round" class="TopLeft"></path><path d="M467 548L680 761" stroke-width="10" stroke="url(#SvgjsLinearGradient1024)" stroke-linecap="round" class="BottomRight"></path><path d="M1408 501L1165 258" stroke-width="6" stroke="url(#SvgjsLinearGradient1025)" stroke-linecap="round" class="TopLeft"></path><path d="M809 520L592 303" stroke-width="8" stroke="url(#SvgjsLinearGradient1025)" stroke-linecap="round" class="TopLeft"></path><path d="M851 330L460 -61" stroke-width="10" stroke="url(#SvgjsLinearGradient1024)" stroke-linecap="round" class="BottomRight"></path><path d="M451 17L819 385" stroke-width="6" stroke="url(#SvgjsLinearGradient1024)" stroke-linecap="round" class="BottomRight"></path><path d="M380 90L735 445" stroke-width="6" stroke="url(#SvgjsLinearGradient1024)" stroke-linecap="round" class="BottomRight"></path><path d="M337 560L722 945" stroke-width="6" stroke="url(#SvgjsLinearGradient1024)" stroke-linecap="round" class="BottomRight"></path><path d="M972 418L1228 674" stroke-width="10" stroke="url(#SvgjsLinearGradient1024)" stroke-linecap="round" class="BottomRight"></path><path d="M1309 463L1003 157" stroke-width="6" stroke="url(#SvgjsLinearGradient1025)" stroke-linecap="round" class="TopLeft"></path><path d="M1079 319L1421 661" stroke-width="6" stroke="url(#SvgjsLinearGradient1024)" stroke-linecap="round" class="BottomRight"></path></g><defs><mask id="SvgjsMask1023"><rect width="1440" height="560" fill="#ffffff"></rect></mask><linearGradient x1="0%" y1="0%" x2="100%" y2="100%" id="SvgjsLinearGradient1024"><stop stop-color="rgba(28, 83, 142, 0)" offset="0"></stop><stop stop-color="#1c538e" offset="1"></stop></linearGradient><linearGradient x1="100%" y1="100%" x2="0%" y2="0%" id="SvgjsLinearGradient1025"><stop stop-color="rgba(28, 83, 142, 0)" offset="0"></stop><stop stop-color="#1c538e" offset="1"></stop></linearGradient></defs></svg>